<svg width="155" height="34" viewBox="0 0 155 34" fill="none" xmlns="http://www.w3.org/2000/svg">
<path d="M16.97 5.52H19.04V24.75C19.04 27.39 17.84 29.85 15.77 31.47C14.24 32.64 12.44 33.27 10.55 33.27C9.86 33.27 9.14 33.18 8.45 33H8.42L0.74 30.69L1.31 28.74L8.99 31.02C9.5 31.14 10.01 31.23 10.55 31.23C11.99 31.23 13.34 30.75 14.51 29.85C16.07 28.62 16.97 26.76 16.97 24.75V20.73C15.26 22.92 12.65 24.3 9.71 24.3C4.58 24.3 0.41 20.01 0.41 14.76C0.41 9.48 4.58 5.22 9.71 5.22C12.65 5.22 15.26 6.6 16.97 8.79V5.52ZM9.71 22.26C13.73 22.26 16.97 18.9 16.97 14.76C16.97 10.62 13.73 7.26 9.71 7.26C5.72 7.26 2.45 10.62 2.45 14.76C2.45 18.9 5.72 22.26 9.71 22.26ZM41.3921 14.76V15.78H24.9221C25.4321 19.44 28.4921 22.23 32.1221 22.23C34.3721 22.23 36.4421 21.18 37.8221 19.35L38.0621 19.02L39.7121 20.25L39.4721 20.58C37.7021 22.95 35.0021 24.3 32.1221 24.3C26.9921 24.3 22.8221 20.01 22.8221 14.76C22.8221 9.48 26.9921 5.22 32.1221 5.22C37.2221 5.22 41.3921 9.48 41.3921 14.76ZM24.9221 13.71H39.2921C38.7821 10.08 35.7221 7.26 32.1221 7.26C28.4921 7.26 25.4321 10.08 24.9221 13.71ZM50.9916 13.77C53.8716 14.37 57.4116 15.12 57.4116 18.99C57.4116 21.9 54.3816 24.24 50.6616 24.24C48.3816 24.24 46.2516 23.37 45.0216 21.9C44.7216 21.57 44.4816 21.21 44.3016 20.82L44.1516 20.46L45.9816 19.56L46.1616 19.95C46.2816 20.16 46.4016 20.37 46.5816 20.55C47.4216 21.57 48.9816 22.2 50.6616 22.2C53.2716 22.2 55.3716 20.76 55.3716 18.99C55.3716 17.01 53.8416 16.47 50.5716 15.78C47.7516 15.18 44.2116 14.43 44.2116 10.62V10.5C44.2116 7.62 47.2416 5.25 50.9916 5.25C53.4216 5.25 55.6716 6.27 56.8716 7.89L57.1116 8.22L55.4316 9.45L55.1916 9.12C54.3816 8.01 52.7616 7.32 50.9916 7.32C48.3816 7.32 46.2816 8.76 46.2816 10.5V10.62C46.2816 12.57 47.7816 13.08 50.9916 13.77ZM71.3935 21.87L71.9035 23.85L71.5135 23.94C70.9435 24.09 70.3735 24.15 69.8035 24.15C68.2435 24.15 66.7735 23.64 65.5435 22.68C63.8035 21.33 62.8135 19.29 62.8135 17.07V9.15H59.6035V7.11H62.8135V3.24H64.8535V7.11H67.9435V9.15H64.8535V17.07C64.8535 18.66 65.5735 20.1 66.8035 21.06C67.6735 21.75 68.7235 22.11 69.8035 22.11C70.1935 22.11 70.6135 22.05 71.0035 21.96L71.3935 21.87ZM76.8273 24.03H74.7873V5.52H76.8273V24.03ZM75.8073 3.78C75.2973 3.78 74.8773 3.39 74.8773 2.88C74.8773 2.37 75.2973 1.95 75.8073 1.95C76.3173 1.95 76.7373 2.37 76.7373 2.88C76.7373 3.39 76.3173 3.78 75.8073 3.78Z" fill="url(#paint0_linear_11_30)"/>
<path d="M83.1755 24.06H80.5055V21.39H83.1755V24.06ZM97.0869 21.87L97.5969 23.85L97.2069 23.94C96.6369 24.09 96.0669 24.15 95.4969 24.15C93.9369 24.15 92.4669 23.64 91.2369 22.68C89.4969 21.33 88.5069 19.29 88.5069 17.07V9.15H85.2969V7.11H88.5069V3.24H90.5469V7.11H93.6369V9.15H90.5469V17.07C90.5469 18.66 91.2669 20.1 92.4969 21.06C93.3669 21.75 94.4169 22.11 95.4969 22.11C95.8869 22.11 96.3069 22.05 96.6969 21.96L97.0869 21.87ZM116.919 14.76V15.78H100.449C100.959 19.44 104.019 22.23 107.649 22.23C109.899 22.23 111.969 21.18 113.349 19.35L113.589 19.02L115.239 20.25L114.999 20.58C113.229 22.95 110.529 24.3 107.649 24.3C102.519 24.3 98.3495 20.01 98.3495 14.76C98.3495 9.48 102.519 5.22 107.649 5.22C112.749 5.22 116.919 9.48 116.919 14.76ZM100.449 13.71H114.819C114.309 10.08 111.249 7.26 107.649 7.26C104.019 7.26 100.959 10.08 100.449 13.71ZM135.189 18.36L136.959 19.41L136.749 19.77C135.039 22.62 132.099 24.3 128.859 24.3C123.759 24.3 119.619 20.04 119.619 14.76C119.619 9.51 123.759 5.22 128.859 5.22C131.139 5.22 133.329 6.09 135.039 7.68L135.339 7.95L133.929 9.45L133.629 9.18C132.309 7.95 130.629 7.29 128.859 7.29C124.899 7.29 121.659 10.65 121.659 14.76C121.659 18.9 124.899 22.26 128.859 22.26C131.349 22.26 133.659 20.94 134.979 18.72L135.189 18.36ZM147.498 5.19C151.578 5.19 154.908 8.52 154.908 12.6V24.03H152.838V12.6C152.838 9.66 150.438 7.26 147.498 7.26C143.358 7.26 142.428 11.67 142.218 13.59V13.71V24.03H140.178V-3.57628e-07H142.218V7.77C143.298 6.33 144.978 5.19 147.498 5.19Z" fill="#464646"/>
<defs>
<linearGradient id="paint0_linear_11_30" x1="-1" y1="0" x2="77.8908" y2="24.2055" gradientUnits="userSpaceOnUse">
<stop stop-color="#865BFF"/>
<stop offset="1" stop-color="#D77CDF"/>
</linearGradient>
</defs>
</svg>
